<svg xmlns="http://www.w3.org/2000/svg" height="800" width="1200" viewBox="-10.799955 -3.11475 93.59961 18.6885"><path fill="#007db8" d="M16.182 0L9.8711 4.8555C9.2238 2.4281 7.1206.6465 4.5312.6465H0v11.166h4.5312c2.5892 0 4.8544-1.7797 5.3398-4.207l6.3105 4.8535 6.3125-4.8535v4.207h7.1191V9.5469h-4.6914V.6465h-2.5898v4.207l-5.988 4.8579-1.295-1.1328 2.914-2.2676 3.074-2.4257-1.779-1.4551-5.988 4.6914-1.295-1.1328 5.9883-4.5312L16.182.0025v-.002zM2.428 2.9121h1.9414c.4046 0 .8.091 1.1641.2578.3641.1669.6973.4095.9805.7129s.5159.6665.6777 1.0762c.1618.4096.252.866.252 1.3516 0 .445-.0813.8793-.2305 1.2812-.1494.402-.3656.7724-.6387 1.0859-.273.3136-.6029.5705-.9746.75-.3717.1796-.7854.2793-1.2305.2793H2.428zm35.277 6.6353v2.2656h-7.1202V.647h2.5892v8.9h4.5311z"/><path fill="gray" d="M67.687 12.018c2.1905 0 3.9703-1.0953 4.3126-3.4911l-.137-.1369h-.616l-.1369.1369c-.3423 1.7113-1.4375 2.6697-3.3542 2.6697-2.3959 0-4.1072-1.7798-4.1072-4.9287 0-3.1489 1.7798-4.9286 4.1072-4.9286 1.9167 0 3.012.9583 3.3542 2.5328l.137.137h.616l.137-.1368c-.342-2.1905-2.054-3.3542-4.313-3.3542-2.6697 0-5.0656 1.9167-5.0656 5.6816 0 3.902 2.3959 5.8186 5.0656 5.8186zm-6.9823-.3423V.8597l-.137-.1369h-1.0952l-.137.137-4.1071 9.652h-.137l-4.244-9.652-.137-.137h-1.0952l-.137.137v10.816l.137.1368h.616l.137-.1369V2.503h.1369l3.9703 9.1728.1369.137h.8214l.137-.137 3.9702-9.1728h.2054v9.1728l.1369.137h.616l.2054-.137zm-13.348 0v-.4791l-.137-.137h-5.887l-.1368-.1369V6.8155l.1369-.1369h5.5447l.1369-.1369v-.5476l-.137-.1369h-5.5446l-.137-.137V1.6816l.137-.137h5.887l.1369-.1368V.86l-.137-.137h-6.8453l-.137.137v10.816l.137.1369h6.8454l.1369-.137z"/></svg>