<svg xmlns="http://www.w3.org/2000/svg" height="800" width="1200" viewBox="-5.67405 -10.85825 49.1751 65.1495"><path fill="#211e1e" d="M0 34.824h1.416l3.2715 4.3408V34.824h1.5186v7.0166H4.9024l-3.3838-4.4287v4.4287H0V34.824m10.713 3.931c-.0879-.6738-.4882-1.1328-1.123-1.1328-.6299 0-1.04.4492-1.1621 1.1328zm-3.7695.4492v-.0195c0-1.5234 1.0889-2.7734 2.6465-2.7734 1.7822 0 2.6025 1.3818 2.6025 2.8906 0 .122-.01.2588-.0195.4004H8.4523c.1514.6836.625 1.045 1.3037 1.045.5127 0 .879-.1612 1.2989-.547l.8642.7666c-.4931.6153-1.2158.9913-2.1826.9913-1.6064 0-2.793-1.123-2.793-2.754M13.14 40.327v-2.5244h-.6396v-1.294h.6396v-1.3623h1.5137v1.3623h1.2598v1.294h-1.2598v2.2754c0 .3515.1514.5175.4883.5175.2832 0 .5322-.0684.752-.1855v1.211c-.3223.1904-.6934.3076-1.2012.3076-.9229 0-1.5528-.3663-1.5528-1.6016m14.839-1.142v-.0195c0-.8838-.6005-1.4746-1.3086-1.4746-.708 0-1.294.5908-1.294 1.4746v.0195c0 .8838.586 1.4746 1.294 1.4746.708 0 1.3086-.581 1.3086-1.4746zm-4.1015-2.6758h1.5185v.7666c.3662-.498.874-.8642 1.665-.8642 1.2452 0 2.4317.9716 2.4317 2.7539v.0195c0 1.7822-1.167 2.7539-2.4316 2.7539-.8106 0-1.3086-.3662-1.665-.791v2.2851h-1.5186v-6.9238M34.214 39.185v-.0195c0-.8838-.6005-1.4746-1.3086-1.4746-.708 0-1.2988.5908-1.2988 1.4746v.0195c0 .8838.5908 1.4746 1.2988 1.4746s1.3086-.581 1.3086-1.4746zm-4.1015-2.6758h1.5185v.7666c.3662-.498.874-.8642 1.665-.8642 1.2452 0 2.4317.9716 2.4317 2.7539v.0195c0 1.7822-1.167 2.7539-2.4316 2.7539-.8106 0-1.3086-.3662-1.665-.791v2.2851h-1.5186v-6.9238M20.796 38.926l-.9277-2.2607-.9277 2.2607zm-1.5966-4.1016h1.3818l2.915 7.0166h-1.5967l-.6445-1.5625h-2.7685l-.6397 1.5625h-1.5674l2.92-7.0166"/><path fill="#0067c5" d="M0 0v29.5654h13.833V11.8261h7.9053v17.7393h13.833V0H0"/><path fill="#211e1e" d="M37.827 37.7h-.1806v-.9961h-.005l-.3516.9961h-.1123l-.3516-.9961h-.005V37.7h-.1806v-1.1914h.2783l.3174.9033.3174-.9033h.2734zm-1.4013-1.0352h-.337V37.7h-.1806v-1.0352h-.337v-.1562h.8546v.1562"/></svg>